<svg width="40" height="40" viewBox="0 0 40 40" fill="none" xmlns="http://www.w3.org/2000/svg">
<path fill-rule="evenodd" clip-rule="evenodd" d="M0 20C0 8.95431 8.95431 0 20 0C31.0457 0 40 8.95431 40 20C40 31.0457 31.0457 40 20 40C8.95431 40 0 31.0457 0 20Z" fill="#00F0FF"/>
<path fill-rule="evenodd" clip-rule="evenodd" d="M19.2256 16.2563L19.2668 16.9483L18.5803 16.8636C16.0817 16.5387 13.8989 15.4371 12.0456 13.5869L11.1395 12.6689L10.9061 13.3468C10.4119 14.858 10.7276 16.454 11.7573 17.5274C12.3064 18.1205 12.1828 18.2053 11.2356 17.8522C10.9061 17.7392 10.6178 17.6545 10.5903 17.6968C10.4942 17.7957 10.8237 19.0809 11.0846 19.5894C11.4415 20.2955 12.1691 20.9876 12.9654 21.3972L13.6381 21.722L12.8418 21.7361C12.073 21.7361 12.0456 21.7502 12.1279 22.0468C12.4025 22.9649 13.4871 23.9394 14.6952 24.3631L15.5463 24.6597L14.805 25.1116C13.7067 25.7613 12.4162 26.1285 11.1257 26.1567C10.508 26.1709 10 26.2273 10 26.2697C10 26.411 11.6749 27.2019 12.6496 27.5126C15.5738 28.4306 19.0471 28.0351 21.6555 26.4674C23.5089 25.3517 25.3622 23.1343 26.2271 20.9876C26.6939 19.8436 27.1607 17.7533 27.1607 16.7506C27.1607 16.1009 27.2019 16.0162 27.9707 15.2394C28.4237 14.7874 28.8493 14.2931 28.9317 14.1519C29.069 13.8835 29.0552 13.8835 28.3551 14.1236C27.1881 14.5473 27.0234 14.4908 27.6 13.8553C28.0256 13.4033 28.5335 12.5842 28.5335 12.3441C28.5335 12.3017 28.3276 12.3723 28.0942 12.4994C27.8471 12.6407 27.298 12.8525 26.8861 12.9796L26.1448 13.2197L25.4721 12.7537C25.1014 12.4994 24.5797 12.217 24.3051 12.1322C23.605 11.9345 22.5342 11.9627 21.9026 12.1887C20.1866 12.8243 19.102 14.4626 19.2256 16.2563Z" fill="white"/>
</svg>
