<svg width="40" height="40" viewBox="0 0 40 40" fill="none" xmlns="http://www.w3.org/2000/svg">
<path fill-rule="evenodd" clip-rule="evenodd" d="M0 20C0 8.95431 8.9543 0 20 0C31.0457 0 40 8.95431 40 20C40 31.0457 31.0457 40 20 40C8.9543 40 0 31.0457 0 20Z" fill="#00F0FF"/>
<path fill-rule="evenodd" clip-rule="evenodd" d="M30.78 16.2357C30.78 16.2357 30.5648 14.7661 29.9055 14.119C29.0688 13.2692 28.1311 13.2653 27.7014 13.2159C24.6227 13 20.0048 13 20.0048 13H19.9952C19.9952 13 15.3773 13 12.2986 13.2159C11.8682 13.2653 10.9312 13.2692 10.0938 14.119C9.4345 14.7661 9.22 16.2357 9.22 16.2357C9.22 16.2357 9 17.9618 9 19.6873V21.3054C9 23.0315 9.22 24.757 9.22 24.757C9.22 24.757 9.4345 26.2266 10.0938 26.8737C10.9312 27.7234 12.0305 27.6968 12.52 27.7854C14.28 27.9493 20 28 20 28C20 28 24.6227 27.9933 27.7014 27.7774C28.1311 27.7274 29.0688 27.7234 29.9055 26.8737C30.5648 26.2266 30.78 24.757 30.78 24.757C30.78 24.757 31 23.0315 31 21.3054V19.6873C31 17.9618 30.78 16.2357 30.78 16.2357V16.2357Z" fill="white"/>
<path fill-rule="evenodd" clip-rule="evenodd" d="M18.0007 23L18 17L24 20.0103L18.0007 23Z" fill="#00F0FF"/>
</svg>
